<?xml version="1.0" encoding="UTF-8"?>
<svg id="Layer_2" data-name="Layer 2" xmlns="http://www.w3.org/2000/svg" viewBox="0 0 604.9 76.41">
  <g id="Layer_1-2" data-name="Layer 1">
    <g>
      <path d="M49.4,52.7c-.3,3.7-.7,11.9-.7,17.9-3.5,2.3-11.2,4.6-17.9,4.6C10.3,75.21,0,57.1,0,38.1S10.2,1,32.1,1c5.8,0,13.1,1.7,16.6,2.2-.2,3-.2,7-.2,11.1,0,3.3,0,6.6.1,9.3h-1.4c-3.9-13.1-8.5-19.4-15.2-19.4-9.8,0-18.7,12.4-18.7,33.9s7.3,33.9,17.1,33.9c8.5,0,14.8-10.1,17.5-19.8l1.5.5Z"/>
      <path d="M53.8,38.3c0-22.2,14.2-37.3,29.7-37.3,16.4,0,30,15.1,30,37.3s-13.7,36.9-29.8,36.9-29.9-15-29.9-36.9ZM100.2,38.3c0-23.4-3.7-34.1-16.5-34.1s-16.6,10.7-16.6,34.1,4.2,33.7,16.6,33.7,16.5-10.6,16.5-33.7Z"/>
      <path d="M161.5,26.8c0-20.2-1.9-22.3-6-24v-1.5c1.7.1,4.5.2,7.5.2,2.7,0,4.5-.1,6.2-.2v1.5c-3.8,1.7-4.1,3.7-4.1,24.1v20c0,16-1.1,28.3-17.7,28.3-9.3,0-15.9-1.7-20.3-7.1-4-5-4.7-11.1-4.7-21.1v-30.1c0-11.1-.4-13.4-4-14.1v-1.5c1.8.1,7.2.2,10.2.2s8.2-.1,10-.2v1.5c-3.5.7-3.8,3-3.8,14.1v29.7c0,18.3.6,24.8,12.9,24.8,11.5,0,13.8-8,13.8-26.1v-18.5Z"/>
      <path d="M222,73.71s-1.2.9-5.9.9c-2.5,0-6.2-.3-9.2-3.5-4.7-5-8-18.9-13.6-29.2h-1.8v16.9c0,11.3.3,13.3,4,14.1v1.5c-1.7-.1-7.2-.2-10.2-.2s-8.5.1-10.2.2v-1.5c3.6-.8,4-2.8,4-14.1V16.9c0-11.3-.5-13.3-4.1-14.1v-1.5c1.4.1,7.2.2,10.1.2,4.9,0,8.2-.2,10.6-.2,14.9,0,21.9,8.1,21.9,20,0,7.9-2.9,14.1-12.1,18.1,4,10,14.1,32,16.5,33.5v.8ZM195,39.2c6.4,0,9.3-5.2,9.3-16.8,0-12.2-2.9-18.1-9.6-18.1-1.8,0-2.9.4-3.2.9v34h3.5Z"/>
      <path d="M252.9,74.41c-1.8-.1-7.1-.2-10.2-.2-2.9,0-8.4.1-10.2.2v-1.5c3.7-.8,4-2.8,4-14.1V6.1c-12.4.2-13.3,3.7-14,10.7h-1.6c.1-3.3.2-6.2.2-8.6,0-3.4-.1-6-.3-7.6,3.5,1.5,10.4,1.9,22.7,1.9,10.4,0,18-.4,20.9-1.9-.2,1.9-.3,4.2-.3,6.7,0,2.9.1,6.2.3,9.5h-1.5c-1.5-8.5-5.4-10.5-14-10.7v52.7c0,11.3.2,13.3,4,14.1v1.5Z"/>
      <path d="M288.3,74.41c-1.8-.1-7-.2-10-.2s-8.4.1-10.2.2v-1.5c3.7-.8,4-2.8,4-14.1V16.9c0-11.3-.2-13.3-3.7-14.1v-1.5c1.9.1,7.5.2,10.4.2h3.6c7.6,0,18.3,0,24.2-.2-.1,1.7-.2,4.7-.2,7.8,0,1.9,0,5.7.2,9.7h-1.5c-5.1-13.1-8.4-13.7-15.6-13.7-.9,0-4.1.2-5,.4v29.3h4.1c3.6,0,9-.3,10.5-8.5h1.5c-.2,3-.4,6.4-.4,9.3,0,3.3.2,7.3.4,9.7h-1.5c-1.8-6.8-6-7.1-10.5-7.1h-4.1v20.6c0,11.3.1,13.3,3.8,14.1v1.5Z"/>
      <path d="M331.2,74.41c-1.8-.1-7.2-.2-10.2-.2s-8.4.1-10.2.2v-1.5c3.9-.8,4-2.9,4-14.1V16.9c0-11.2-.1-13.3-4-14.1v-1.5c1.8.1,7.2.2,10.2.2s8.4-.1,10.2-.2v1.5c-3.9.8-4,2.9-4,14.1v41.9c0,11.2.1,13.3,4,14.1v1.5Z"/>
      <path d="M383.6,76.41c-9.1-14.4-26.4-35.8-38.5-50.6v4.6c0,33.5.3,40.5,6.2,42.5v1.4c-1.8-.1-4.6-.2-7.6-.2-2.7,0-4.6.1-6.3.2v-1.4c4.2-1.5,4.2-6.4,4.2-29.1,0-25.6-.2-34.1-.5-43.8h1.6c10.6,16,26.7,36.5,37.9,50.3v-4.5c0-38.4-.4-41-6.2-43v-1.4c1.8.1,4.7.2,7.7.2,2.7,0,4.5-.1,6.2-.2v1.4c-4,1.5-4.1,4.5-4.1,29.1v21.1c0,7.8.1,15.5.7,23.4h-1.3Z"/>
      <path d="M394.5,72.91c3.1-.7,3.4-2.9,3.4-14.1V16.9c0-11.1-.2-13.4-3.4-14.1v-1.5c1.8.1,6.7.2,10,.2,3.7,0,7.3-.2,11.6-.2,31.8,0,33.8,23.9,33.8,36.6,0,19.9-11.1,36.6-32.2,36.6-3.4,0-8.3-.3-13.6-.3-2.9,0-7.8.1-9.6.2v-1.5ZM410.3,70.6c.6.7,3,.9,5,.9,14.7,0,20.6-10.8,20.6-33.6,0-32.3-15-33.6-20.8-33.6-.4,0-4.1.3-4.8.9v65.4Z"/>
      <path d="M495.2,54.3c0,4.8-.1,13.4-.1,20.1-3.5-.1-14.2-.2-22.3-.2h-7.6c-2.7,0-7.8.1-9.8.2v-1.5c3.3-.8,3.8-2.8,3.8-14.1V16.9c0-11.3-.3-13.3-3.7-14.1v-1.5c1.8.1,7.1.2,9,.2,8.7,0,24.2,0,31.1-.2-.1,2.9-.2,5.9-.2,8.9s.1,6.2.3,9.4h-1.5c-5.6-14.5-10.4-14.5-17.6-14.5-.9,0-4.1.2-5,.4v29.4h4.2c4,0,8.8-.7,10.7-8.6h1.5c-.2,3-.4,6.4-.4,9.3,0,4,.2,7.7.4,10.1h-1.5c-1.1-6.9-7.2-7.4-10.7-7.4h-4.2v31.9c1,.2,3.8.4,5,.4,5.3,0,12.1-.7,17.2-16.3h1.4Z"/>
      <path d="M549.4,73.71s-1.2.9-5.9.9c-2.5,0-6.2-.3-9.2-3.5-4.7-5-8-18.9-13.6-29.2h-1.8v16.9c0,11.3.3,13.3,4,14.1v1.5c-1.7-.1-7.2-.2-10.2-.2s-8.5.1-10.2.2v-1.5c3.6-.8,4-2.8,4-14.1V16.9c0-11.3-.5-13.3-4.1-14.1v-1.5c1.4.1,7.2.2,10.1.2,4.9,0,8.2-.2,10.6-.2,14.9,0,21.9,8.1,21.9,20,0,7.9-2.9,14.1-12.1,18.1,4,10,14.1,32,16.5,33.5v.8ZM522.39,39.2c6.4,0,9.3-5.2,9.3-16.8,0-12.2-2.9-18.1-9.6-18.1-1.8,0-2.9.4-3.2.9v34h3.5Z"/>
      <path d="M585.59,64.1c.1-3.6.1-9.3.1-17.2-6.4,0-10.9,0-13.7.1v-6c2.9.1,7.2.2,13.7.2,0-8,0-13.6-.1-17.2h5.6c0,3.6-.1,9.1-.1,17.2,6.4,0,10.9-.1,13.8-.2v6c-2.9-.1-7.5-.1-13.8-.1,0,8,.1,13.6.1,17.2h-5.6Z"/>
    </g>
  </g>
</svg>