<?xml version="1.0" encoding="UTF-8"?>
<svg id="Layer_2" data-name="Layer 2" xmlns="http://www.w3.org/2000/svg" viewBox="0 0 168.05 168.04">
  <defs>
    <style>
      .cls-1 {
        font-family: OrpheusPro-BoldCondensed, 'Orpheus Pro';
        font-size: 12px;
        font-weight: 700;
      }
    </style>
  </defs>
  <g id="Layer_1-2" data-name="Layer 1">
    <g>
      <text class="cls-1" transform="translate(83.97 10.33) rotate(1.7)"><tspan x="0" y="0">c</tspan></text>
      <text class="cls-1" transform="translate(89.25 10.5) rotate(6.07)"><tspan x="0" y="0">o</tspan></text>
      <text class="cls-1" transform="translate(95.25 11.16) rotate(10.8)"><tspan x="0" y="0">u</tspan></text>
      <text class="cls-1" transform="translate(101.29 12.36) rotate(15.23)"><tspan x="0" y="0">r</tspan></text>
      <text class="cls-1" transform="translate(106.28 13.77) rotate(18.78)"><tspan x="0" y="0">t</tspan></text>
      <text class="cls-1" transform="translate(109.97 15.05) rotate(21.56)"><tspan x="0" y="0"> </tspan></text>
      <text class="cls-1" transform="translate(112.9 16.18) rotate(25.22)"><tspan x="0" y="0">fi</tspan></text>
      <text class="cls-1" transform="translate(118.49 18.85) rotate(30.07)"><tspan x="0" y="0">n</tspan></text>
      <text class="cls-1" transform="translate(123.88 22.01) rotate(34.86)"><tspan x="0" y="0">d</tspan></text>
      <text class="cls-1" transform="translate(128.83 25.5) rotate(39.3)"><tspan x="0" y="0">e</tspan></text>
      <text class="cls-1" transform="translate(133.03 28.98) rotate(43.4)"><tspan x="0" y="0">r</tspan></text>
      <text class="cls-1" transform="translate(136.77 32.59) rotate(46.64)"><tspan x="0" y="0"> </tspan></text>
      <text class="cls-1" transform="translate(138.95 34.88) rotate(49.91)"><tspan x="0" y="0">c</tspan></text>
      <text class="cls-1" transform="translate(142.35 38.95) rotate(54.32)"><tspan x="0" y="0">o</tspan></text>
      <text class="cls-1" transform="translate(145.85 43.87) rotate(59.04)"><tspan x="0" y="0">u</tspan></text>
      <text class="cls-1" transform="translate(148.98 49.17) rotate(63.44)"><tspan x="0" y="0">r</tspan></text>
      <text class="cls-1" transform="translate(151.25 53.82) rotate(66.98)"><tspan x="0" y="0">t</tspan></text>
      <text class="cls-1" transform="translate(152.75 57.42) rotate(69.76)"><tspan x="0" y="0"> </tspan></text>
      <text class="cls-1" transform="translate(153.85 60.39) rotate(73.08)"><tspan x="0" y="0">c</tspan></text>
      <text class="cls-1" transform="translate(155.38 65.47) rotate(77.54)"><tspan x="0" y="0">o</tspan></text>
      <text class="cls-1" transform="translate(156.66 71.37) rotate(82.28)"><tspan x="0" y="0">u</tspan></text>
      <text class="cls-1" transform="translate(157.44 77.48) rotate(86.67)"><tspan x="0" y="0">r</tspan></text>
      <text class="cls-1" transform="translate(157.72 82.63) rotate(90.93)"><tspan x="0" y="0">t</tspan></text>
      <text class="cls-1" transform="translate(157.66 86.54) rotate(92.83)"><tspan x="0" y="0"> </tspan></text>
      <text class="cls-1" transform="translate(157.53 89.72) rotate(96.48)"><tspan x="0" y="0">fi</tspan></text>
      <text class="cls-1" transform="translate(156.8 95.86) rotate(101.32)"><tspan x="0" y="0">n</tspan></text>
      <text class="cls-1" transform="translate(155.54 101.98) rotate(106.14)"><tspan x="0" y="0">d</tspan></text>
      <text class="cls-1" transform="translate(153.83 107.77) rotate(110.62)"><tspan x="0" y="0">e</tspan></text>
      <text class="cls-1" transform="translate(151.88 112.86) rotate(114.77)"><tspan x="0" y="0">r</tspan></text>
      <text class="cls-1" transform="translate(149.66 117.56) rotate(118.03)"><tspan x="0" y="0"> </tspan></text>
      <text class="cls-1" transform="translate(148.17 120.37) rotate(121.35)"><tspan x="0" y="0">c</tspan></text>
      <text class="cls-1" transform="translate(145.4 124.89) rotate(125.76)"><tspan x="0" y="0">o</tspan></text>
      <text class="cls-1" transform="translate(141.85 129.77) rotate(130.47)"><tspan x="0" y="0">u</tspan></text>
      <text class="cls-1" transform="translate(137.83 134.41) rotate(134.83)"><tspan x="0" y="0">r</tspan></text>
      <text class="cls-1" transform="translate(134.14 138.06) rotate(138.33)"><tspan x="0" y="0">t</tspan></text>
      <text class="cls-1" transform="translate(131.22 140.62) rotate(141.07)"><tspan x="0" y="0"> </tspan></text>
      <text class="cls-1" transform="translate(128.77 142.64) rotate(144.71)"><tspan x="0" y="0">fi</tspan></text>
      <text class="cls-1" transform="translate(123.7 146.19) rotate(149.54)"><tspan x="0" y="0">n</tspan></text>
      <text class="cls-1" transform="translate(118.28 149.34) rotate(154.36)"><tspan x="0" y="0">d</tspan></text>
      <text class="cls-1" transform="translate(112.81 151.92) rotate(158.83)"><tspan x="0" y="0">e</tspan></text>
      <text class="cls-1" transform="translate(107.71 153.85) rotate(162.99)"><tspan x="0" y="0">r</tspan></text>
      <text class="cls-1" transform="translate(102.74 155.32) rotate(166.26)"><tspan x="0" y="0"> </tspan></text>
      <text class="cls-1" transform="translate(99.67 156.08) rotate(169.58)"><tspan x="0" y="0">c</tspan></text>
      <text class="cls-1" transform="translate(94.46 157.03) rotate(174)"><tspan x="0" y="0">o</tspan></text>
      <text class="cls-1" transform="translate(88.45 157.63) rotate(178.68)"><tspan x="0" y="0">u</tspan></text>
      <text class="cls-1" transform="translate(82.29 157.73) rotate(-176.98)"><tspan x="0" y="0">r</tspan></text>
      <text class="cls-1" transform="translate(77.1 157.41) rotate(-173.48)"><tspan x="0" y="0">t</tspan></text>
      <text class="cls-1" transform="translate(73.24 156.94) rotate(-170.73)"><tspan x="0" y="0"> </tspan></text>
      <text class="cls-1" transform="translate(70.1 156.45) rotate(-167.05)"><tspan x="0" y="0">fi</tspan></text>
      <text class="cls-1" transform="translate(64.1 155.04) rotate(-162.19)"><tspan x="0" y="0">n</tspan></text>
      <text class="cls-1" transform="translate(58.15 153.1) rotate(-157.36)"><tspan x="0" y="0">d</tspan></text>
      <text class="cls-1" transform="translate(52.57 150.72) rotate(-152.88)"><tspan x="0" y="0">e</tspan></text>
      <text class="cls-1" transform="translate(47.75 148.22) rotate(-148.76)"><tspan x="0" y="0">r</tspan></text>
      <text class="cls-1" transform="translate(43.33 145.48) rotate(-145.51)"><tspan x="0" y="0"> </tspan></text>
      <text class="cls-1" transform="translate(40.72 143.7) rotate(-142.22)"><tspan x="0" y="0">c</tspan></text>
      <text class="cls-1" transform="translate(36.54 140.44) rotate(-137.82)"><tspan x="0" y="0">o</tspan></text>
      <text class="cls-1" transform="translate(32.08 136.36) rotate(-133.12)"><tspan x="0" y="0">u</tspan></text>
      <text class="cls-1" transform="translate(27.9 131.83) rotate(-128.74)"><tspan x="0" y="0">r</tspan></text>
      <text class="cls-1" transform="translate(24.7 127.77) rotate(-125.25)"><tspan x="0" y="0">t</tspan></text>
      <text class="cls-1" transform="translate(22.47 124.57) rotate(-122.49)"><tspan x="0" y="0"> </tspan></text>
      <text class="cls-1" transform="translate(20.75 121.92) rotate(-118.84)"><tspan x="0" y="0">fi</tspan></text>
      <text class="cls-1" transform="translate(17.79 116.47) rotate(-113.98)"><tspan x="0" y="0">n</tspan></text>
      <text class="cls-1" transform="translate(15.28 110.73) rotate(-109.14)"><tspan x="0" y="0">d</tspan></text>
      <text class="cls-1" transform="translate(13.33 105) rotate(-104.65)"><tspan x="0" y="0">e</tspan></text>
      <text class="cls-1" transform="translate(11.98 99.73) rotate(-100.51)"><tspan x="0" y="0">r</tspan></text>
      <text class="cls-1" transform="translate(11.09 94.61) rotate(-97.24)"><tspan x="0" y="0"> </tspan></text>
      <text class="cls-1" transform="translate(10.68 91.48) rotate(-93.97)"><tspan x="0" y="0">c</tspan></text>
      <text class="cls-1" transform="translate(10.3 86.22) rotate(-89.07)"><tspan x="0" y="0">o</tspan></text>
      <text class="cls-1" transform="translate(10.39 80.16) rotate(-84.95)"><tspan x="0" y="0">u</tspan></text>
      <text class="cls-1" transform="translate(10.98 74.02) rotate(-80.55)"><tspan x="0" y="0">r</tspan></text>
      <text class="cls-1" transform="translate(11.88 68.91) rotate(-77)"><tspan x="0" y="0">t</tspan></text>
      <text class="cls-1" transform="translate(12.78 65.13) rotate(-74.23)"><tspan x="0" y="0"> </tspan></text>
      <text class="cls-1" transform="translate(13.62 62.08) rotate(-70.55)"><tspan x="0" y="0">fi</tspan></text>
      <text class="cls-1" transform="translate(15.7 56.26) rotate(-65.69)"><tspan x="0" y="0">n</tspan></text>
      <text class="cls-1" transform="translate(18.31 50.58) rotate(-60.88)"><tspan x="0" y="0">d</tspan></text>
      <text class="cls-1" transform="translate(21.29 45.31) rotate(-56.43)"><tspan x="0" y="0">e</tspan></text>
      <text class="cls-1" transform="translate(24.33 40.78) rotate(-52.31)"><tspan x="0" y="0">r</tspan></text>
      <text class="cls-1" transform="translate(27.54 36.71) rotate(-49.08)"><tspan x="0" y="0"> </tspan></text>
      <text class="cls-1" transform="translate(29.62 34.3) rotate(-45.79)"><tspan x="0" y="0">c</tspan></text>
      <text class="cls-1" transform="translate(33.31 30.52) rotate(-41.41)"><tspan x="0" y="0">o</tspan></text>
      <text class="cls-1" transform="translate(37.88 26.53) rotate(-36.68)"><tspan x="0" y="0">u</tspan></text>
      <text class="cls-1" transform="translate(42.84 22.89) rotate(-32.3)"><tspan x="0" y="0">r</tspan></text>
      <text class="cls-1" transform="translate(47.24 20.16) rotate(-28.77)"><tspan x="0" y="0">t</tspan></text>
      <text class="cls-1" transform="translate(50.67 18.31) rotate(-26.01)"><tspan x="0" y="0"> </tspan></text>
      <text class="cls-1" transform="translate(53.48 16.91) rotate(-22.36)"><tspan x="0" y="0">fi</tspan></text>
      <text class="cls-1" transform="translate(59.23 14.58) rotate(-17.48)"><tspan x="0" y="0">n</tspan></text>
      <text class="cls-1" transform="translate(65.21 12.73) rotate(-12.64)"><tspan x="0" y="0">d</tspan></text>
      <text class="cls-1" transform="translate(71.13 11.45) rotate(-8.17)"><tspan x="0" y="0">e</tspan></text>
      <text class="cls-1" transform="translate(76.53 10.7) rotate(-4.06)"><tspan x="0" y="0">r</tspan></text>
      <text class="cls-1" transform="translate(81.72 10.39) rotate(-.93)"><tspan x="0" y="0"> </tspan></text>
      <g>
        <path d="M79.07,99.86c-.3,3.7-.7,11.9-.7,17.9-3.5,2.3-11.2,4.6-17.9,4.6-20.5,0-30.8-18.1-30.8-37.1s10.2-37.1,32.1-37.1c5.8,0,13.1,1.7,16.6,2.2-.2,3-.2,7-.2,11.1,0,3.3,0,6.6.1,9.3h-1.4c-3.9-13.1-8.5-19.4-15.2-19.4-9.8,0-18.7,12.4-18.7,33.9s7.3,33.9,17.1,33.9c8.5,0,14.8-10.1,17.5-19.8l1.5.5Z"/>
        <path d="M110.51,122.06c-1.8-.1-7-.2-10-.2s-8.4.1-10.2.2v-1.5c3.7-.8,4-2.8,4-14.1v-41.9c0-11.3-.2-13.3-3.7-14.1v-1.5c1.9.1,7.5.2,10.4.2h3.6c7.6,0,18.3,0,24.2-.2-.1,1.7-.2,4.7-.2,7.8,0,1.9,0,5.7.2,9.7h-1.5c-5.1-13.1-8.4-13.7-15.6-13.7-.9,0-4.1.2-5,.4v29.3h4.1c3.6,0,9-.3,10.5-8.5h1.5c-.2,3-.4,6.4-.4,9.3,0,3.3.2,7.3.4,9.7h-1.5c-1.8-6.8-6-7.1-10.5-7.1h-4.1v20.6c0,11.3.1,13.3,3.8,14.1v1.5Z"/>
        <path d="M132.02,120.22c.04-1.41.04-3.64.04-6.73-2.5,0-4.27,0-5.36.04v-2.35c1.14.04,2.82.08,5.36.08,0-3.13,0-5.32-.04-6.73h2.19c0,1.41-.04,3.56-.04,6.73,2.5,0,4.27-.04,5.4-.08v2.35c-1.13-.04-2.94-.04-5.4-.04,0,3.13.04,5.32.04,6.73h-2.19Z"/>
      </g>
    </g>
  </g>
</svg>