<?xml version="1.0" encoding="UTF-8"?>
<svg id="Layer_2" data-name="Layer 2" xmlns="http://www.w3.org/2000/svg" viewBox="0 0 129.22 129.22">
  <defs>
    <style>
      .cls-1 {
        fill: #fff;
        stroke: #000;
        stroke-miterlimit: 10;
      }
    </style>
  </defs>
  <g id="Layer_1-2" data-name="Layer 1">
    <g>
      <rect class="cls-1" x=".5" y=".5" width="128.22" height="128.22"/>
      <g>
        <g>
          <path d="M34.42,65.85c-1.74,3.22-4.09,5.31-7.46,5.31-6.08,0-10.06-4.85-10.06-12.41,0-8.38,4.85-12.62,9.76-12.62s7.36,2.15,8.07,6.79h-5.62c0-3.78-.56-5.42-2.45-5.42-2.5,0-4.09,3.78-4.09,9.81,0,6.74,2.91,10.52,6.49,10.52,1.79,0,3.42-.61,4.85-2.55l.51.56Z"/>
          <path d="M36.21,58.7c0-7.71,5.36-12.57,10.42-12.57s10.52,4.85,10.52,12.57-5.57,12.26-10.52,12.26-10.42-4.85-10.42-12.26ZM50.72,58.7c0-7.36-.72-11.19-3.99-11.19s-4.09,3.83-4.09,11.19.77,10.88,4.04,10.88,4.04-3.88,4.04-10.88Z"/>
          <path d="M81.37,67.43c-.66,1.28-2.04,3.53-4.75,3.53-1.79,0-3.32-.66-4.14-2.71-1.28,1.74-2.71,2.71-5.21,2.71-3.01,0-7.05-.71-7.05-8.28v-9.6c0-3.17-.15-4.19-1.02-4.6v-.77c2.71,0,4.96-.56,6.95-1.58v14.87c0,6.18.71,7.76,3.47,7.76.92,0,1.94-.66,2.55-1.69-.05-.36-.1-.71-.1-1.12v-12.87c0-3.17-.15-4.19-1.07-4.6v-.77c2.71,0,5.01-.56,7-1.58v18.85c0,2.04.61,2.91,1.33,2.91.61,0,1.12-.41,1.63-1.12l.41.66Z"/>
          <path d="M91.53,70.75c-.92-.05-3.22-.1-4.75-.1s-3.78.05-4.7.1v-.77c1.23-.31,1.74-.56,1.74-4.65v-12.26c0-3.12-.05-4.24-1.23-4.6v-.77c2.71,0,5.16-.56,7.15-1.58v4.19c2.4-3.07,3.93-4.19,5.82-4.19s4.09,1.69,4.09,7.15h-5.77c0-2.25-.71-2.96-1.84-2.96-.87,0-1.58.46-2.3,1.63v13.38c0,4.09.56,4.34,1.79,4.65v.77Z"/>
          <path d="M113.24,66c-.66,3.12-1.79,4.96-5.16,4.96-4.34,0-5.77-2.15-5.77-7.1v-14.1h-1.99v-.77c3.83-2.55,5.88-6.64,6.79-10.83l1.33.26c-.15,1.63-.21,5.06-.21,7.97h.51c1.23,0,2.66,0,3.58-1.18l.46.61-1.94,3.93h-2.61v13.03c0,3.83.66,5.36,2.3,5.36,1.12,0,1.63-1.02,2.09-2.4l.61.26Z"/>
        </g>
        <g>
          <path d="M41.84,95.97c-.51-.03-1.77-.05-2.71-.05-1.37,0-1.96.03-2.23.05v-.4c.64-.16.91-.29.91-2.44v-8.02h-1.58v-.35l1.58-1.58c0-3.44.59-7.81,4.88-7.81,2.07,0,4.05,1.8,4.48,3.87l-2.74.75c-.51-1.72-1.48-3.11-3.25-3.11-1.21,0-1.85.81-1.85,1.58.03,1.8,1.58,1.37,1.58,4.13v.59h1.91v1.93h-1.91v8.02c0,2.15.27,2.28.91,2.44v.4ZM47.99,95.97c-.48-.03-1.69-.05-2.5-.05s-1.99.03-2.47.05v-.4c.64-.16.91-.29.91-2.44v-6.44c0-1.64-.03-2.23-.64-2.42v-.4c1.42,0,2.71-.29,3.76-.83v10.09c0,2.15.29,2.28.94,2.44v.4Z"/>
          <path d="M60.47,95.97c-.46-.03-1.66-.05-2.47-.05s-2.01.03-2.47.05v-.4c.64-.16.91-.29.91-2.44v-5.72c0-2.31-.43-3.22-1.69-3.22-.75,0-1.31.48-1.8,1.21v7.73c0,2.15.29,2.28.94,2.44v.4c-.48-.03-1.69-.05-2.5-.05s-1.99.03-2.47.05v-.4c.64-.16.91-.29.91-2.44v-6.44c0-1.64-.03-2.2-.64-2.42v-.4c1.42,0,2.71-.29,3.76-.83v1.53c1.07-1.23,2.28-1.53,3.22-1.53,1.5,0,3.38.54,3.38,4.38v5.72c0,2.15.27,2.28.91,2.44v.4Z"/>
          <path d="M72.31,94.68c-.43.73-1.13,1.4-2.07,1.4-.83,0-1.37-.4-1.66-1.15-.62.83-1.32,1.15-2.33,1.15-2.87,0-4.99-2.52-4.99-6.44s2.31-6.6,5.26-6.6c.86,0,1.45.27,1.83.7v-4.62c0-1.64-.03-2.23-.56-2.42v-.4c1.42,0,2.66-.29,3.68-.83v16.02c0,2.58.03,2.98.43,2.98.13,0,.21-.13.21-.13l.21.35ZM68.34,84.88c-.16-.56-.62-1.02-1.53-1.02-1.69,0-2.2,1.56-2.2,5.77,0,3.54.67,5.42,2.23,5.42.64,0,1.24-.21,1.56-.86-.05-.27-.05-.56-.05-.89v-8.43Z"/>
          <path d="M82.62,93.15c-1.07,1.96-2.52,3.03-4.21,3.03-3.03,0-5.26-2.47-5.26-6.55s2.36-6.6,5.23-6.6c2.09,0,4.43,1.29,4.43,5.34h-6.71v.32c0,3.46,1.23,5.74,3.36,5.74,1.02,0,1.99-.51,2.95-1.64l.21.35ZM79.86,87.51c0-2.44-.43-3.76-1.53-3.76-1.45,0-2.01,2.07-2.17,3.76h3.7Z"/>
          <path d="M88.69,95.97c-.48-.03-1.69-.05-2.5-.05s-1.99.03-2.47.05v-.4c.64-.16.91-.29.91-2.44v-6.44c0-1.64-.03-2.23-.64-2.42v-.4c1.42,0,2.71-.29,3.76-.83v2.2c1.26-1.61,2.07-2.2,3.06-2.2s2.15.89,2.15,3.76h-3.03c0-1.18-.38-1.56-.97-1.56-.46,0-.83.24-1.21.86v7.03c0,2.15.3,2.28.94,2.44v.4Z"/>
        </g>
      </g>
    </g>
  </g>
</svg>